# xmcd CD database file
#
# Track frame offsets:
#	150
#	22721
#	59426
#	79513
#	92617
#	120852
#	142221
#	156918
#	175506
#	190492
#
# Disc length: 2633 seconds
#
# Revision: 0
# Processed by: cddbd v1.5.2PL0 Copyright (c) Steve Scherf et al.
# Submitted via: CDex 1.70beta2
#
DISCID=740a470a
DTITLE=鈴木重子 and 木住野佳子 - with You
DYEAR=2011
DGENRE=Jazz
TTITLE0=My Favorite Things
TTITLE1=A Nightingale Sang In Barkeley Square
TTITLE2=Falando de Amor
TTITLE3=One Note Samba
TTITLE4=Something
TTITLE5=Run For Love
TTITLE6=この道
TTITLE7=蘇州夜曲
TTITLE8=Kiss For The Earth
TTITLE9=Kiss For The Earth (a cappella)
EXTD=YEAR: 2011
EXTT0=
EXTT1=
EXTT2=
EXTT3=
EXTT4=
EXTT5=
EXTT6=
EXTT7=
EXTT8=
EXTT9=
PLAYORDER=
